<?xml version="1.0" encoding="utf-8"?>
<!-- Generator: Adobe Illustrator 25.0.1, SVG Export Plug-In . SVG Version: 6.00 Build 0)  -->
<svg version="1.2" baseProfile="tiny" id="浏览器-1_xA0_图像_1_"
	 xmlns="http://www.w3.org/2000/svg" xmlns:xlink="http://www.w3.org/1999/xlink" x="0px" y="0px" viewBox="0 0 480 480"
	 overflow="visible" xml:space="preserve">
<g>
	<path display="none" d="M253.59,745.33c-161.77,0-323.55,0-485.32,0.05c-1.83,0-2.24-0.41-2.24-2.24
		c0.05-323.71,0.05-647.42,0-971.14c0-1.83,0.41-2.24,2.24-2.24c323.71,0.05,647.42,0.05,971.14,0c1.83,0,2.24,0.41,2.24,2.24
		c-0.05,323.71-0.05,647.42,0,971.14c0,1.83-0.41,2.24-2.24,2.24C577.46,745.33,415.52,745.33,253.59,745.33z"/>
	<path fill="#7B2B52" d="M222.59,89.86c11.07,0,22.15,0,33.22,0c2.58,0.36,5.18,0.11,7.76,0.15c1.65,0.02,2.93,0.52,3.99,1.87
		c6.5,8.29,12.84,16.71,19.33,25.01c9.93,12.71,19.76,25.5,29.62,38.26c4.65,6.02,9.63,11.81,13.75,18.24
		c0.38,0.59,1.26,0.81,1.31,1.68c0.14,11.86,0.04,23.72,0.05,35.58c0.02,20.63,0.01,41.26,0.01,61.89c0,0.73,0.05,1.47-0.01,2.19
		c-0.1,1.14,0.47,2.64-1.1,3.15c-1.44,0.46-2.17-0.71-2.93-1.67c-2.13-2.67-4.23-5.35-6.31-8.05c-5.85-7.59-11.71-15.16-17.56-22.75
		c-1.05-1.36-1.99-2.77-2.53-4.41c-0.2-2.35,0.97-4.39,1.54-6.56c6-22.92,1.26-43.42-13.6-61.75c-3.14-3.87-6.79-7.17-10.75-10.14
		c-1.31-0.98-2.64-1.9-4.34-2c-1.74-0.1-2.91-0.97-3.99-2.38c-10.31-13.45-20.73-26.82-31.06-40.25
		c-5.79-7.52-11.6-15.02-17.44-22.49c-0.3-0.38-0.61-0.75-0.87-1.17C219.12,91.67,219.65,90.46,222.59,89.86z"/>
	<path fill="#873A61" d="M263.12,342.85c-13.99,0.03-27.98,0.05-41.97,0.08c-1.78,0-3.56,0.03-5.34,0.04
		c-0.76,0.29-1.52,0.57-2.35,0.57c-6.66,0-13.32,0.24-19.97-0.14c-1.63-0.95-2.75-2.43-3.88-3.88
		c-6.15-7.86-12.25-15.76-18.32-23.69c-0.78-1.02-1.32-2.04-0.99-3.36c0.34-1.02,1.14-1.49,2.07-1.89c1.27-0.54,2.57-0.99,3.81-1.6
		c2.64-1.31,3.24-2.64,2.06-5.28c-1.58-3.55-3.2-7.08-4.85-10.6c-0.65-1.4-1.72-2.41-3.43-2.18c-1.67,0.22-2.18,1.46-2.41,2.93
		c-0.56,3.6-0.51,7.26-0.91,10.87c-0.12,1.09,0.1,2.36-1.39,2.78c-2.05-1.38-3.21-3.57-4.67-5.45c-4.72-6.08-9.45-12.14-14.11-18.26
		c-1.01-1.32-1.61-2.8-2.31-4.26c-0.03-11.02-0.08-22.04-0.07-33.05c0-13.21,0.05-26.41,0.07-39.62c1.52-0.56,2.18,0.54,2.93,1.49
		c5.5,6.97,10.9,14.03,16.32,21.07c3.25,4.22,6.73,8.27,9.53,12.82c0.54,0.87,1.26,1.45,2.3,1.57c1.34,0.68,1.78,2.04,2.4,3.25
		c4.07,7.93,9.37,14.88,16.25,20.59c0.75,0.63,1.42,1.33,1.62,2.35c0.03,0.8,0.01,1.55,0.63,2.26c8.75,9.91,16.38,20.71,24.52,31.1
		c9.4,11.99,18.67,24.08,27.97,36.15c1,1.3,2.13,1.85,3.72,1.84c2.6-0.02,5.2-0.04,7.79,0.02c1.03,0.03,2.15-0.16,2.94,0.8
		C263.25,342.39,263.25,342.62,263.12,342.85z"/>
	<path fill="#803158" d="M302.12,240.5c0.4,2.49,2.4,3.99,3.79,5.81c7.52,9.87,15.18,19.63,22.8,29.43
		c0.43,0.56,0.72,1.56,1.53,1.38c1.07-0.25,0.63-1.35,0.63-2.09c0.01-33.47-0.01-66.94-0.03-100.41c-1.01-1.31-1.08-2.86-1.08-4.41
		c-0.03-22.41-0.04-44.81,0.01-67.22c0-1.18-0.19-2.48,0.9-3.4c1.45-0.32,1.57,0.75,1.73,1.71c0.18,1.13,0.13,2.27,0.13,3.41
		c0,65.07,0.13,130.14-0.12,195.21c-0.04,11.03-0.27,22.08-0.35,33.12c-0.02,3.38-1.46,5.91-4.13,8.28c2.77-0.03,5.25-0.07,7.72,0
		c1.11,0.03,2.3-0.15,3.27,0.67c0.24,0.24,0.32,0.53,0.25,0.87c-5.83,0.05-11.66,0.1-17.5,0.14c-3.88,1.13-7.82,0.54-11.74,0.38
		c-3.48-3.07-5.96-6.98-8.78-10.59c-10.42-13.34-20.7-26.79-31.1-40.15c-2.29-2.94-4.54-5.91-6.84-8.84
		c-1.08-1.38-1.13-2.81-0.21-4.29c2.42-2.27,5.7-2.98,8.47-4.64c12.86-7.71,22.3-18.34,28.31-32.07
		C300.22,241.78,300.41,240.3,302.12,240.5z"/>
	<path fill="#7D2D54" d="M222.59,89.86c-2.28,1.35-2.43,1.9-0.72,4.13c7.25,9.45,14.54,18.87,21.83,28.29
		c6.44,8.33,12.91,16.65,19.36,24.98c2.83,3.65,5.66,7.3,8.45,10.99c0.64,0.85,1.43,1.29,2.46,1.34c0.71,1.53-0.45,2.4-1.21,3.41
		c-2.95,3.96-2.92,3.93,0.81,7.05c11.17,9.34,18.76,20.89,21.56,35.34c0.38,1.98,0.65,3.99,0.93,6c-0.35,2.25-0.64,4.49-0.54,6.78
		c0.04,0.88,0.09,1.88-0.97,2.27c-1.16,0.43-2.02-0.11-2.75-1c-2.07-2.5-4.05-5.07-6.02-7.65c-2.32-3.02-4.65-6.05-6.98-9.06
		c-0.8-1.03-1.41-2.18-1.77-3.44c-0.36-1.12,0.13-2.05,0.68-2.97c1.21-2.02,2.22-4.14,3.18-6.28c0.22-0.74,0.22-1.46-0.18-2.15
		c-1.08-1.63-2.75-1.77-4.48-1.85c-3.37-0.15-6.76,0.37-10.11-0.36c-6.39-6.89-11.63-14.71-17.51-22.02
		c-1.03-1.28-2.25-2.87-0.03-4.33c1.58-0.37,3.03,0.34,4.52,0.63c1.73,0.33,2.89-0.26,3.43-1.89c1.89-5.72,1.93-6.23-3.73-7.57
		c-7.33-1.73-14.75-1.84-22.2-1.31c-0.86,0.15-1.73,0.09-2.59,0.22c-4.21,0.51-8.23,1.92-12.38,2.69c-2.74-0.83-3.89-3.36-5.43-5.36
		c-13.9-18.01-27.84-35.99-41.72-54.01c-0.69-0.89-2.19-1.32-1.91-2.87C185.22,89.86,203.9,89.86,222.59,89.86z"/>
	<path fill="#5B153E" d="M339.17,342.85c0.01-0.11,0.03-0.22,0.04-0.32c0.35-1.09,1.35-1.37,2.25-1.68
		c5.24-1.82,7.33-5.84,7.73-11.03c0.12-1.54,0.06-3.09,0.06-4.63c0-52.27,0.01-104.53-0.01-156.8c0-2.93,0.15-5.84,0.44-8.75
		c0.15-1.5-0.42-2.88-0.63-4.31c1.41-7.66,3.61-15.15,5.3-22.75c0.18-0.79,0.41-1.57,0.55-2.37c0.5-2.83-0.4-4.3-3.13-5.13
		c-0.62-0.19-1.27-0.29-1.73-0.82c-0.84-1.3-0.72-2.78-0.77-4.23c-0.15-4.2,0.4-8.43-0.34-12.6c-1.05-5.91-3.96-8.7-9.88-9.71
		c-2.56-0.32-5.07-1.06-7.69-0.89c-1.12,0.07-1.95-0.51-2.66-1.41c-2.08-2.59-4.69-4.14-8.14-4.08c-1.01,0.02-2.19,0.01-2.33-1.48
		c11.54-0.02,23.07-0.17,34.61-0.01c6.53,0.09,10.75,4.77,10.75,11.31c0,76.62-0.04,153.23,0.08,229.85
		c0.01,6.1-4.04,11.69-11.33,11.89C347.95,343.02,343.56,342.87,339.17,342.85z"/>
	<path fill="#803158" d="M166.54,89.86c2.89,1.11,4.06,3.91,5.77,6.09c9.01,11.48,17.85,23.1,26.79,34.64
		c5.36,6.92,16.2,20.65,16.2,20.65l-36.9,23.54c0,0-14.14-18.29-21.23-27.41c-4.31-5.55-8.47-11.23-13.01-16.62
		c-0.03-9.41-0.15-18.82-0.04-28.22c0.07-5.75,5.19-11.25,10.81-12.28C158.8,89.53,162.67,89.85,166.54,89.86z"/>
	<path fill="#78264D" d="M318.22,89.85c0.46,0.13,0.93,0.4,1.38,0.36c4.44-0.41,7.82,1.37,10.33,4.95c0.66,0.94,1.6,0.91,2.58,0.98
		c2.23,0.16,4.51-0.43,6.7,0.39c-0.69,1.57-2.15,1.18-3.34,1.16c-1.9-0.02-3.64,0.17-4.92,1.77c-0.02,21.16-0.04,42.33-0.07,63.49
		c0,3.89-0.02,7.78-0.04,11.68c-1.64-0.48-2.28-2.02-3.19-3.19c-16.05-20.67-32.06-41.37-48.07-62.07
		c-4.46-5.77-8.95-11.51-13.32-17.35c-1.01-1.36-2.14-1.73-3.71-1.77c-2.25-0.06-4.54,0.44-6.75-0.38c4.31-0.03,8.61,0,12.92-0.11
		c1.88-0.05,2.35,1.44,3.16,2.55c0.9,1.23,1.66,2.57,2.48,3.86c1.38,0.75,2.32,1.9,3.17,3.21c3.2,4.93,6.67,9.68,9.92,14.58
		c0.74,1.12,1.41,2.38,2.77,2.93c0.72,0.19,1.42,0.16,2.08-0.25c1.49-0.99,1.56-2.64,1.73-4.11c0.48-4.25,1.17-8.48,1.62-12.73
		c0.15-1.41,0.47-2.7,1.57-3.69c0.1-6.33,0.1-6.34,6.45-6.33C308.52,89.79,313.37,89.83,318.22,89.85z"/>
	<path fill="#83355C" d="M144.16,130.76c1.16-0.09,1.92,0.41,2.64,1.35c8.62,11.22,17.28,22.4,25.94,33.59
		c2.28,2.94,4.59,5.85,6.83,8.81c0.7,0.92,1.44,1.53,2.65,1.16c0.93,1.25-0.05,2.16-0.63,3.06c-5.6,8.72-9.26,18.15-10.8,28.43
		c-1.21,8.06-0.65,15.98,1.03,23.9c0.79,3.74,1.68,7.43,3.08,10.99c0.31,0.79,0.47,1.55-0.08,2.3c-1.06,0.7-1.43-0.23-1.9-0.83
		c-8.97-11.58-17.94-23.17-26.92-34.75c-0.54-0.69-1.23-1.28-1.84-1.91c-0.03-9-0.08-17.99-0.08-26.99
		C144.1,163.5,144.14,147.13,144.16,130.76z"/>
	<path fill="#5B153E" d="M309.44,342.45c3.22,0.01,6.44,0.02,9.66,0.02c0.9,0,1.77,0.08,2.57,0.51
		c-0.01,16.89-0.05,33.79-0.01,50.68c0.01,2.28-0.72,3.78-2.53,5.35c-6.57,5.7-12.08,12.38-16.65,19.81
		c-0.89,1.45-1.82,2.87-2.68,4.33c-0.79,1.33-1.74,2.43-3.47,1.94c-1.68-0.48-2.03-1.78-2.03-3.42c0.04-17.71,0.02-35.41,0.02-53.12
		c0-8.53,0.01-17.06,0.01-25.58c0.04-0.16,0.07-0.31,0.11-0.47c0.48-0.93,1.35-1.08,2.25-1.12c3.38-0.15,6.76-0.12,10.14-0.03
		C307.84,341.39,308.71,341.75,309.44,342.45z"/>
	<path fill="#7A2B5A" d="M192.86,342.44c6.64,0,13.27,0,19.91,0.02c1.03,0,2.12-0.21,3.04,0.52c-0.01,16-0.04,32,0,48
		c0,2.19-0.29,4.14-2.61,4.91c-2.33,0.78-3.84-0.7-5.07-2.37c-2.9-3.94-5.72-7.94-8.77-12.2c-2.59,3.44-5.04,6.71-7.5,9.97
		c-0.78,1.03-1.7,1.97-2.33,3.08c-1.17,2.06-3.09,1.98-4.88,1.62c-1.71-0.34-2.13-2.05-2.46-3.56c-0.15-0.7-0.06-1.46-0.06-2.19
		c-0.01-15.76-0.02-31.51-0.02-47.27c-0.1-0.68,0.29-1.22,0.85-1.29C186.3,341.29,189.69,340.49,192.86,342.44z"/>
	<path fill="#893D64" d="M192.86,342.44c-2.74,0-5.47,0-8.21,0.01c-0.88,0-1.79-0.09-2.54,0.53c-7.79-0.01-15.59,0.01-23.38-0.06
		c-4.86-0.04-9.2-1.39-12.15-5.58c-1.29-1.84-2.47-3.84-2.47-6.17c-0.01-17.21,0.03-34.42,0.06-51.63c2.9,2.3,4.63,5.59,6.92,8.39
		c4.54,5.56,8.61,11.52,13.35,16.93c0.67,0.77,0.58,1.63,0.64,2.51c0.44,0.23,0.82,0.52,0.99,1.02c0.6,1.84,1.74,3.08,3.76,3.34
		c0.52,0.07,0.82,0.49,1.08,0.91c0.71,2.81,2.96,4.6,4.59,6.77c5.36,7.11,10.85,14.12,16.3,21.16
		C192.24,341.14,192.76,341.66,192.86,342.44z"/>
	<path fill="#B47A76" d="M297.22,96.11c-0.81,6.34-1.62,12.68-2.41,19.03c-0.19,1.57-1.25,2.37-2.5,3.05
		c-0.79,0.18-1.57,0.24-2.35-0.04c-0.96-0.17-1.48-0.84-2.01-1.61c-4.18-6.16-8.41-12.28-12.6-18.43c-0.4-0.59-0.66-1.29-0.98-1.93
		C281.98,96.15,289.6,96.13,297.22,96.11z"/>
	<path fill="#9D5569" d="M263.12,342.85c0-0.13,0-0.26,0-0.39c0.61-1.16,1.74-1.1,2.77-1.11c8.53-0.1,17.06-0.11,25.58,0.01
		c1.05,0.02,2.4-0.18,2.68,1.43c0,0.12,0.05,0.17,0.17,0.18C283.93,342.93,273.52,342.89,263.12,342.85z"/>
	<path fill="#FEFEFE" d="M294.84,210.99c-1.23-11.64-5.36-22.05-12.95-31.06c-3.48-4.13-7.36-7.8-11.67-11.03
		c-1.46-1.09-1.68-2.25-0.53-3.71c1.45-1.84,2.85-3.73,4.27-5.6c1.37-0.45,2.44,0.03,3.58,0.86c24.94,17.94,35,49.42,25.03,78.43
		c-0.18,0.53-0.3,1.08-0.45,1.62c-3.24,7.48-7.14,14.54-12.55,20.72c-6.85,7.83-14.97,13.88-24.48,18.09
		c-0.52,0.23-1.01,0.51-1.51,0.77c-3.39,3.56-8.1,3.92-12.45,4.76c-10.89,2.08-21.77,1.77-32.5-1.32c-0.86-0.25-1.71-0.5-2.51-0.9
		c-1.73-0.86-2.54-2.23-2.29-4.15c0.26-1.93,0.45-3.87,0.9-5.76c0.5-2.1,1.62-2.96,3.8-2.99c1.08-0.01,2.08,0.34,3.08,0.64
		c8.55,2.55,17.22,2.89,25.98,1.44c0.72-0.12,1.46-0.07,2.17-0.24c6.7-1.97,13.03-4.72,18.82-8.71c3.76-2.59,6.82-5.93,10.21-8.91
		c5.03-5.91,9.27-12.28,11.98-19.62c1.16-3.14,1.91-6.36,2.64-9.61c0.88-3.89,2.2-7.7,1.64-11.8
		C294.97,212.27,295.1,211.61,294.84,210.99z"/>
	<path fill="#83355C" d="M250.43,272.24c-9.15,2.55-18.26,1.99-27.37-0.24c-0.47-0.12-0.94-0.24-1.41-0.37
		c-5.45-1.58-5.45-1.58-6.26,3.89c-0.87,5.89-0.87,5.88,5.22,7.35c14.1,3.42,27.97,2.79,41.58-2.37c0.45-0.17,0.92-0.28,1.38-0.42
		c-0.71,1.19-0.19,2.16,0.55,3.11c14.77,19.02,29.54,38.05,44.31,57.07c0.51,0.65,0.87,1.37,1,2.19c-5.09,0.21-10.2-0.35-15.28,0.34
		c-0.74-0.47-1.57-0.34-2.37-0.34c-9.56,0-19.11,0-28.67,0.01c-3.82,0-7.64-0.05-11.46,0c-1.52,0.02-2.6-0.5-3.53-1.71
		c-12.81-16.66-25.65-33.31-38.49-49.95c-4.66-6.04-9.37-12.04-14.05-18.07c-0.56-0.73-1.51-1.41-0.65-2.53
		c1.31-0.54,2.18,0.37,3.05,1.02c2.16,1.6,4.41,3.05,6.75,4.35c2.52,1.4,3.87,0.88,4.95-1.77c0.09-0.23,0.16-0.46,0.24-0.69
		c1.49-4.1,1.5-4.11-2.2-6.37c-13.59-8.28-22.78-20.06-26.74-35.41c-4.73-18.33-1.46-35.39,10.05-50.65c0.71-0.94,1.54-1.7,2.86-1.5
		c1.67,1.63,3.85,2.97,3.41,5.83c-0.1,0.31-0.24,0.6-0.48,0.84c-2.97,2.95-2.95,3.18-1.03,6.8c3.62,6.8,7.28,13.58,10.96,20.34
		c1.16,2.14,1.18,4.05,0.01,6.19c-3.76,6.91-7.53,13.81-11.21,20.76c-2.05,3.86-0.95,6.11,3.44,6.21c6.9,0.15,13.8,0.2,20.69-0.02
		c3.63-0.11,5.82,1.01,7.4,4.42c2.11,4.55,4.75,8.85,7.06,13.32c0.3,0.58,0.66,1.12,1.07,1.62c1.67,2.08,3.66,1.99,5.12-0.24
		c0.82-1.26,1.24-2.9,3.09-3.15c3,1.56,4.31,4.63,6.32,7.08C250.49,270.09,251.19,271.02,250.43,272.24z"/>
	<path fill="#FEFEFE" d="M193.78,179.39c-7.27,8.17-11.76,17.75-13,28.52c-2.96,25.74,7.01,45.33,29.13,58.73
		c2.12,1.28,2.87,2.69,1.85,4.98c-0.49,1.11-0.87,2.27-1.31,3.4c-1.04,2.62-2.48,3.25-5.11,2.03c-3.8-1.76-7.2-4.16-10.39-6.85
		c-5.96-5.17-11.41-10.8-15.51-17.6c-1.62-2.69-3.07-5.49-4.6-8.25c-9.67-23.84-7.5-46.47,6.95-67.84c0.18-0.26,2.82-3.7,4.03-5.11
		c1.83-2.13,2.82-2.25,5.18-0.66c0.85,0.58,1.7,1.16,3.12,2.14c-0.77-1.63-1.18-2.74-1.79-3.73c-1.3-2.11-0.89-3.65,1.02-5.24
		c6.23-5.18,13.11-9.19,20.66-12.07c0.45-0.17,0.87-0.4,1.3-0.61c4.15-1.31,8.41-2.19,12.68-3c0.8-0.41,1.74,0.09,2.54-0.38
		c8.61-0.4,17.16-0.21,25.5,2.31c3.1,0.94,3.52,1.67,2.72,4.7c-2.08,7.86-2.48,7-10.22,5.12c-2.58,0.94-5.19,0.01-7.78,0.12
		c-1.81-0.25-3.62-0.31-5.43,0c-4.26,0.09-8.39,1.14-12.56,1.8c-9.45,2.73-17.73,7.49-24.82,14.35
		C196.69,177.46,195.8,179.2,193.78,179.39z"/>
	<path fill="#5B153E" d="M170.9,312.63c-4.2,0.17-5.62-1.12-5.83-5.27c0.76-3.08,0.59-6.25,0.92-9.37c0.17-1.6,0.2-3.22,0.44-4.83
		c0.29-1.93,1.26-3.09,3.14-3.53c1.96-0.45,3.35,0.47,4.31,2c0.81,1.29,1.34,2.76,1.99,4.15c1.16,2.5,2.35,4.98,3.46,7.5
		c1.48,3.36,0.8,5.07-2.46,6.67C174.91,310.93,172.72,311.37,170.9,312.63z"/>
	<path fill="#B47A76" d="M330.95,99.46c-0.48-2.26,0.26-3.19,2.71-2.89c1.82,0.22,3.7-0.01,5.55-0.03
		c6.96,0.97,10.9,5.4,11.06,12.53c0.11,4.94,0.12,9.88,0.18,14.82c-0.49,1.12-1.53,1.07-2.49,1.13c-1.95,0.12-3.89,0.04-5.84,0.08
		c-1.78,0.03-2.71,0.86-2.73,2.68c-0.01,0.97-0.02,1.95-0.02,2.92c0,18.67,0,37.33,0,56c0,4.13,0.18,8.28-0.43,11.88
		c0.17-2.4,0.7-5.25,1.41-8.08c2.73-10.86,5.21-21.78,7.96-32.63c0.31-1.22,0.14-2.91,2.01-3.22
		c-0.01,58.02-0.03,116.03-0.02,174.05c0,3.77-0.6,7.28-3.32,10.13c-2.12,2.22-4.76,3.33-7.75,3.7c-4.94,0-9.88,0-14.82,0
		c-0.03-0.13-0.06-0.25-0.1-0.38c0.61-0.32,1.24-0.61,1.82-0.97c2.94-1.83,4.77-4.36,4.85-7.95c0.01-0.33,0.01-0.65,0.02-0.98
		c0.55-76.72,0.22-153.45,0.31-230.17C331.3,101.2,331.39,100.29,330.95,99.46z"/>
	<path fill="#FEFEFE" d="M243.52,262.3c-0.69,1.18-1.38,2.37-2.08,3.55c-1.98,3.34-5.6,3.36-7.49-0.04
		c-2.91-5.25-5.85-10.49-8.49-15.88c-1.12-2.28-2.5-2.87-4.89-2.82c-7.15,0.16-14.3,0.06-21.45,0.06c-5.81,0-7.41-2.6-4.69-7.64
		c3.77-7,7.48-14.04,11.4-20.95c1.08-1.89,0.92-3.26-0.08-5.06c-3.94-7.09-7.75-14.26-11.59-21.41c-1.99-3.7-1.29-5.59,2.58-7.19
		c0.89-1.25,2.24-1.14,3.53-1.15c6.48-0.04,12.96-0.1,19.44,0.02c2.64,0.05,4.19-0.92,5.29-3.3c1.42-3.08,3.24-5.96,4.83-8.96
		c0.73-2.34,1.93-4.47,3.25-6.48c2.21-3.37,7.11-2.93,9.26,0.71c2.96,5.02,5.61,10.21,8.38,15.33c1.09,2.01,2.46,2.78,4.65,2.69
		c2.42-0.1,4.86-0.03,7.28-0.01c1.24,0.01,2.43,0.18,3.36,1.11c3.61,0.04,7.23,0.14,10.84,0.1c2.35-0.03,4.23,0.64,5.35,2.84
		c0.24,0.8,0.21,1.61,0.02,2.42c-1.54,2.9-3.3,5.68-4.53,8.74c-0.03,3.89-2.81,6.61-4.21,9.92c-0.31,0.73-0.72,1.47-1.21,2.1
		c-2.91,3.74-1.91,7.13,0.33,10.87c3.5,5.84,6.64,11.89,9.71,17.97c0.33,0.65,0.65,1.3,0.77,2.04c0.61,3.75-1.4,6.14-5.38,6.51
		c-1.38,0.13-2.74-0.49-4.1,0.01c-5.99,0.13-11.98,0.1-17.97,0.03c-2.38-0.03-3.9,0.71-5.03,2.91c-1.55,3.02-3.16,6.02-4.9,8.94
		C245.18,261.17,244.83,262.25,243.52,262.3z"/>
	<path fill="#7E2F55" d="M273.83,247.3c1.21-0.04,2.42-0.09,3.63-0.13c4.24-0.13,5.97-3.02,3.97-6.74
		c-4.01-7.49-8.03-14.98-12.13-22.42c-0.75-1.36-0.84-2.36-0.04-3.76c2.9-5.04,5.64-10.17,8.44-15.27
		c3.25,5.15,7.29,9.7,10.91,14.57c1.35,1.82,2.78,3.58,4.17,5.37c0.35,0.46,0.7,1.01,1.35,0.8c0.66-0.21,0.63-0.88,0.64-1.44
		c0.03-2.43,0.04-4.87,0.06-7.3c1.07,6.34,0.29,12.56-1.38,18.69c-2.6,9.53-7.27,17.91-14.16,25.02c-0.65,0.24-1.35,0.25-1.81-0.24
		c-1.55-1.62-2.96-3.36-3.97-5.38C273.21,248.46,273.35,247.83,273.83,247.3z"/>
	<path fill="#7E2F55" d="M266.02,184.9c-4.37,0.04-8.74,0.02-13.11,0.15c-1.36,0.04-1.79-0.74-2.3-1.7
		c-2.9-5.42-5.86-10.8-8.74-16.23c-0.96-1.82-2.06-3.26-4.38-3.23c-2.27,0.03-3.38,1.24-4.14,3.28c-0.6,1.61-1.66,3.04-2.52,4.56
		c-1.05,0.9-1.99,0.51-2.76-0.37c-2.14-2.44-4.07-5.05-5.99-7.67c-0.64-0.87-0.79-1.77,0.04-2.64c4.21-1.22,8.48-2.1,12.89-2.03
		c1.94-0.35,3.89-0.34,5.84-0.02c2.61-0.09,5.18,0.15,7.67,0.99c-0.75,1.77,0.76,2.7,1.56,3.75c4.95,6.53,10,12.99,15.02,19.46
		C265.51,183.73,265.93,184.22,266.02,184.9z"/>
	<path fill="#803158" d="M230.53,147.86c-0.8,0.42-1.67,0.44-2.54,0.38C228.77,147.71,229.65,147.82,230.53,147.86z"/>
	<path fill="#7E2F55" d="M282.23,190.25c-0.01-0.81-0.01-1.61-0.02-2.42C282.72,188.63,282.72,189.44,282.23,190.25z"/>
	<path fill="#DCADA8" d="M350.31,154.64c-2.08,8.5-4.16,17.01-6.23,25.51c-1.81,7.48-3.61,14.96-5.76,22.44
		c-0.05-0.57-0.15-1.13-0.15-1.7c-0.01-24.68,0.02-49.36-0.05-74.03c-0.01-2.4,0.78-3.11,3.08-2.99c3.08,0.16,6.17,0.02,9.25,0.01
		c5.07,0.13,6.64,2.2,5.46,7.17C354.04,138.91,352.18,146.78,350.31,154.64z"/>
	<path fill="#5B153E" d="M319.1,137.6c0,1.38,0.17,2.79-0.04,4.14c-0.41,2.59-3.01,3.4-4.97,1.65c-3.42-3.06-3.95-8.13-1.24-11.82
		c0.81-1.11,1.9-1.5,3.21-1.21c1.67,0.37,2.8,1.4,3.01,3.11C319.24,134.82,319.11,136.22,319.1,137.6z"/>
	<path fill="#7B2B52" d="M289.96,118.14c0.78,0.01,1.57,0.03,2.35,0.04C291.52,118.67,290.73,118.67,289.96,118.14z"/>
	<path fill="#813359" d="M273.83,247.3c1.3,2.86,3.23,5.24,5.47,7.4c-7.88,8.71-17.31,14.88-28.87,17.54
		c-1.55-2.88-3.83-5.22-5.73-7.85c-0.48-0.66-1.05-1.25-1.18-2.09c2.49-4.71,4.98-9.42,7.45-14.14c0.39-0.74,0.93-1.01,1.75-1
		C259.75,247.22,266.79,247.26,273.83,247.3z"/>
	<path fill="#803057" d="M222.13,161.05c1.14,3.46,4,5.72,5.99,8.58c0.65,0.93,1.2,2.2,2.71,2.09c-1.81,4.33-4.39,8.26-6.48,12.45
		c-0.41,0.81-1.07,0.85-1.82,0.85c-8.59-0.04-17.18-0.07-25.77-0.1c-0.22-2.26-2.78-3.26-2.99-5.53
		C201.3,170.3,210.71,164.13,222.13,161.05z"/>
	<path fill="#803057" d="M240.85,159c-1.95,0.01-3.89,0.01-5.84,0.02C236.96,158.49,238.9,158.62,240.85,159z"/>
	<path fill="#803158" d="M237.21,238.82c-2.44-0.23-5.98,1.12-8.26-0.5c-2.14-1.53-3-4.87-4.4-7.43c-2.36-4.35-4.65-8.74-7.09-13.04
		c-0.73-1.3-0.67-2.28,0.03-3.56c3.53-6.39,7-12.81,10.4-19.27c0.66-1.25,1.41-1.73,2.83-1.7c4.63,0.09,9.26,0.08,13.89,0
		c1.37-0.02,2.19,0.34,2.87,1.63c3.47,6.6,7.04,13.16,10.63,19.7c0.58,1.05,0.56,1.87-0.01,2.91c-3.59,6.54-7.14,13.11-10.64,19.69
		c-0.61,1.15-1.31,1.66-2.65,1.6C242.46,238.74,240.11,238.82,237.21,238.82z"/>
	<path fill="#83355C" d="M211.83,224.86c2.61,4.84,4.96,9.21,7.53,13.97c-4.85,0-9.27-0.01-13.7,0c-1.24,0-1.08-0.57-0.64-1.36
		C207.21,233.42,209.4,229.36,211.83,224.86z"/>
	<path fill="#813258" d="M263.58,224.86c2.6,4.83,4.96,9.19,7.53,13.96c-4.84,0-9.27-0.01-13.69,0.01c-1.19,0-1.14-0.5-0.68-1.34
		C258.94,233.45,261.13,229.39,263.58,224.86z"/>
	<path fill="#82335A" d="M211.83,207.32c-2.42-4.47-4.59-8.52-6.8-12.55c-0.55-1.01-0.45-1.44,0.81-1.43
		c4.36,0.03,8.72,0.01,13.53,0.01C216.79,198.12,214.41,202.54,211.83,207.32z"/>
	<path fill="#7F3057" d="M263.58,207.33c-2.44-4.52-4.64-8.56-6.83-12.61c-0.39-0.72-0.73-1.38,0.6-1.37
		c4.43,0.02,8.87,0.01,13.75,0.01C268.55,198.1,266.2,202.48,263.58,207.33z"/>
	<path fill="#803158" d="M237.72,176.98c1.36,2.52,2.47,4.64,3.64,6.74c0.52,0.94,0.3,1.34-0.76,1.31c-0.08,0-0.16,0-0.24,0
		c-2.17-0.05-4.34-0.1-6.51-0.16c0.21-2.15,1.76-3.69,2.57-5.57C236.71,178.64,237.12,178.03,237.72,176.98z"/>
	<path fill="#83355B" d="M237.7,255.23c-1.52-2.8-2.8-5.18-4.22-7.8c2.61-0.52,5-0.18,7.36-0.24c0.82-0.02,0.97,0.43,0.61,1.1
		C240.28,250.47,239.1,252.65,237.7,255.23z"/>
</g>
<path fill="#FEFEFE" d="M182.23,175.67"/>
<path fill="#803158" d="M215.3,151.24"/>
<path fill="#803158" d="M215.3,151.24"/>
<path fill="#803158" d="M215.3,151.24"/>
<path fill="#7D2D54" d="M215.3,151.24"/>
<path fill="#803158" d="M215.3,151.24"/>
<rect x="180.31" y="242.04" transform="matrix(-0.79 0.6131 -0.6131 -0.79 490.0535 346.9563)" fill="#873A61" width="10.61" height="30.73"/>
<path fill="#83355C" d="M312.22,342.06L145.1,126.72c-0.33-0.42-1.01-0.19-1.01,0.34v79.16c0,0.12,0.04,0.25,0.12,0.34L249.9,342.75
	c0.11,0.14,0.27,0.22,0.44,0.22h61.43C312.25,342.97,312.51,342.43,312.22,342.06z"/>
<rect x="222.7" y="106.17" transform="matrix(-0.79 0.6131 -0.6131 -0.79 569.4786 244.5703)" fill="#803158" width="40.31" height="227.29"/>
<polygon fill="#7D2D54" points="331.32,235.12 221.38,93.46 189.52,118.19 331.32,300.9 "/>
<polygon fill="#7B2B52" points="331.32,176.19 266.04,92.08 237.37,114.32 308.42,205.88 331.32,188.11 "/>
<path fill="#FEFEFE" d="M294.47,208.82c-1.23-11.64-5.36-22.05-12.95-31.06c-3.48-4.13-7.36-7.8-11.67-11.03
	c-1.46-1.09-1.68-2.25-0.53-3.71c1.45-1.84,2.85-3.73,4.27-5.6c1.37-0.45,2.44,0.03,3.58,0.86c24.94,17.94,35,49.42,25.03,78.43
	c-0.18,0.53-0.3,1.08-0.45,1.62c-3.24,7.48-7.14,14.54-12.55,20.72c-6.85,7.83-14.97,13.88-24.48,18.09
	c-0.52,0.23-1.01,0.51-1.51,0.77c-3.39,3.56-8.1,3.92-12.45,4.76c-10.89,2.08-21.77,1.77-32.5-1.32c-0.86-0.25-1.71-0.5-2.51-0.9
	c-1.73-0.86-2.54-2.23-2.29-4.15c0.26-1.93,0.45-3.87,0.9-5.76c0.5-2.1,1.62-2.96,3.8-2.99c1.08-0.01,2.08,0.34,3.08,0.64
	c8.55,2.55,17.22,2.89,25.98,1.44c0.72-0.12,1.46-0.07,2.17-0.24c6.7-1.97,13.03-4.72,18.82-8.71c3.76-2.59,6.82-5.93,10.21-8.91
	c5.03-5.91,9.27-12.28,11.98-19.62c1.16-3.14,1.91-6.36,2.64-9.61c0.88-3.89,2.2-7.7,1.64-11.8
	C294.6,210.1,294.73,209.44,294.47,208.82z"/>
<path fill="#FEFEFE" d="M193.4,177.22c-7.27,8.17-11.76,17.75-13,28.52c-2.96,25.74,7.01,45.33,29.13,58.73
	c2.12,1.28,2.87,2.69,1.85,4.98c-0.49,1.11-0.87,2.27-1.31,3.4c-1.04,2.62-2.48,3.25-5.11,2.03c-3.8-1.76-7.2-4.16-10.39-6.85
	c-5.96-5.17-11.41-10.8-15.51-17.6c-1.62-2.69-3.07-5.49-4.6-8.25c-9.67-23.84-7.5-46.47,6.95-67.84c0.18-0.26,0.3-0.57,0.45-0.85
	c1.2-1.42,2.38-2.85,3.59-4.26c1.83-2.13,2.82-2.25,5.18-0.66c0.85,0.58,1.7,1.16,3.12,2.14c-0.77-1.63-1.18-2.74-1.79-3.73
	c-1.3-2.11-0.89-3.65,1.02-5.24c6.23-5.18,13.11-9.19,20.66-12.07c0.45-0.17,0.87-0.4,1.3-0.61c4.15-1.31,8.41-2.19,12.68-3
	c0.8-0.41,1.74,0.09,2.54-0.38c8.61-0.4,17.16-0.21,25.5,2.31c3.1,0.94,3.52,1.67,2.72,4.7c-2.08,7.86-2.48,7-10.22,5.12
	c-2.58,0.94-5.19,0.01-7.78,0.12c-1.81-0.25-3.62-0.31-5.43,0c-4.26,0.09-8.39,1.14-12.56,1.8c-9.46,2.73-17.73,7.49-24.82,14.35
	C196.32,175.29,195.43,177.03,193.4,177.22z"/>
<g>
	<g>
		<path fill="#FFFFFF" d="M267.39,252.33c-9.78-6.96-19.56-13.92-29.34-20.87c-0.78-0.56-2.25-0.58-3.03,0
			c-9.64,7.15-19.28,14.3-28.92,21.45c1.47,1.13,2.94,2.26,4.41,3.39c3.6-11.45,7.19-22.9,10.79-34.35
			c0.43-1.35-0.31-2.63-1.38-3.39c-9.78-6.96-19.56-13.92-29.34-20.87c-0.5,1.86-1.01,3.73-1.51,5.59c12-0.12,24-0.24,36.01-0.36
			c1.36-0.01,2.49-0.93,2.89-2.2c3.6-11.45,7.19-22.9,10.79-34.35c-1.93,0-3.86,0-5.79,0c3.82,11.38,7.64,22.75,11.47,34.13
			c0.42,1.25,1.52,2.22,2.89,2.2c12-0.12,24-0.24,36.01-0.36c-0.5-1.86-1.01-3.73-1.51-5.59c-9.64,7.15-19.28,14.3-28.92,21.45
			c-1.03,0.77-1.83,2.04-1.38,3.39c3.82,11.38,7.64,22.75,11.47,34.13c1.22,3.64,7.02,2.08,5.79-1.6
			c-3.82-11.38-7.64-22.75-11.47-34.13c-0.46,1.13-0.92,2.26-1.38,3.39c9.64-7.15,19.28-14.3,28.92-21.45
			c2.24-1.66,1.71-5.62-1.51-5.59c-12,0.12-24,0.24-36.01,0.36c0.96,0.73,1.93,1.47,2.89,2.2c-3.82-11.38-7.64-22.75-11.47-34.13
			c-0.94-2.8-4.88-2.89-5.79,0c-3.6,11.45-7.19,22.9-10.79,34.35c0.96-0.73,1.93-1.47,2.89-2.2c-12,0.12-24,0.24-36.01,0.36
			c-3.15,0.03-3.85,3.93-1.51,5.59c9.78,6.96,19.56,13.92,29.34,20.87c-0.46-1.13-0.92-2.26-1.38-3.39
			c-3.6,11.45-7.19,22.9-10.79,34.35c-0.73,2.34,2.27,4.98,4.41,3.39c9.64-7.15,19.28-14.3,28.92-21.45c-1.01,0-2.02,0-3.03,0
			c9.78,6.96,19.56,13.92,29.34,20.87C267.52,259.75,270.52,254.55,267.39,252.33z"/>
	</g>
	<line fill="none" stroke="#FFFFFF" stroke-width="6" stroke-miterlimit="10" x1="206.04" y1="200.1" x2="259.65" y2="199.57"/>
	<line fill="none" stroke="#FFFFFF" stroke-width="6" stroke-miterlimit="10" x1="207.53" y1="213.4" x2="245.48" y2="240.41"/>
	<line fill="none" stroke="#FFFFFF" stroke-width="6" stroke-miterlimit="10" x1="258.47" y1="232.86" x2="245.49" y2="194.22"/>
	<line fill="none" stroke="#FFFFFF" stroke-width="6" stroke-miterlimit="10" x1="229.3" y1="186.46" x2="215.17" y2="231.47"/>
	<path fill="none" stroke="#FFFFFF" stroke-width="6" stroke-miterlimit="10" d="M226.75,241.3l38.01-28.2L226.75,241.3z"/>
</g>
</svg>
