<?xml version="1.0" encoding="utf-8"?>
<!-- Generator: Adobe Illustrator 25.0.1, SVG Export Plug-In . SVG Version: 6.00 Build 0)  -->
<svg version="1.2" baseProfile="tiny" id="浏览器-1_xA0_图像_1_"
	 xmlns="http://www.w3.org/2000/svg" xmlns:xlink="http://www.w3.org/1999/xlink" x="0px" y="0px" viewBox="0 0 219.6 335.5"
	 overflow="visible" xml:space="preserve">
<g>
	<path display="none" d="M109.5,655.6c-161.8,0-323.5,0-485.3,0c-1.8,0-2.2-0.4-2.2-2.2c0-323.7,0-647.4,0-971.1
		c0-1.8,0.4-2.2,2.2-2.2c323.7,0,647.4,0,971.1,0c1.8,0,2.2,0.4,2.2,2.2c0,323.7,0,647.4,0,971.1c0,1.8-0.4,2.2-2.2,2.2
		C433.4,655.6,271.4,655.6,109.5,655.6z"/>
	<path fill="#7B2B52" d="M78.5,0.1c11.1,0,22.1,0,33.2,0c2.6,0.4,5.2,0.1,7.8,0.1c1.6,0,2.9,0.5,4,1.9c6.5,8.3,12.8,16.7,19.3,25
		c9.9,12.7,19.8,25.5,29.6,38.3c4.7,6,9.6,11.8,13.7,18.2c0.4,0.6,1.3,0.8,1.3,1.7c0.1,11.9,0,23.7,0.1,35.6c0,20.6,0,41.3,0,61.9
		c0,0.7,0.1,1.5,0,2.2c-0.1,1.1,0.5,2.6-1.1,3.1c-1.4,0.5-2.2-0.7-2.9-1.7c-2.1-2.7-4.2-5.4-6.3-8.1c-5.8-7.6-11.7-15.2-17.6-22.7
		c-1-1.4-2-2.8-2.5-4.4c-0.2-2.3,1-4.4,1.5-6.6c6-22.9,1.3-43.4-13.6-61.7c-3.1-3.9-6.8-7.2-10.8-10.1c-1.3-1-2.6-1.9-4.3-2
		c-1.7-0.1-2.9-1-4-2.4c-10.3-13.5-20.7-26.8-31.1-40.3c-5.8-7.5-11.6-15-17.4-22.5c-0.3-0.4-0.6-0.8-0.9-1.2
		C75,1.9,75.6,0.7,78.5,0.1z"/>
	<path fill="#873A61" d="M119,253.1c-14,0-28,0.1-42,0.1c-1.8,0-3.6,0-5.3,0c-0.8,0.3-1.5,0.6-2.4,0.6c-6.7,0-13.3,0.2-20-0.1
		c-1.6-1-2.8-2.4-3.9-3.9c-6.2-7.9-12.3-15.8-18.3-23.7c-0.8-1-1.3-2-1-3.4c0.3-1,1.1-1.5,2.1-1.9c1.3-0.5,2.6-1,3.8-1.6
		c2.6-1.3,3.2-2.6,2.1-5.3c-1.6-3.5-3.2-7.1-4.8-10.6c-0.7-1.4-1.7-2.4-3.4-2.2c-1.7,0.2-2.2,1.5-2.4,2.9c-0.6,3.6-0.5,7.3-0.9,10.9
		c-0.1,1.1,0.1,2.4-1.4,2.8c-2.1-1.4-3.2-3.6-4.7-5.5c-4.7-6.1-9.5-12.1-14.1-18.3c-1-1.3-1.6-2.8-2.3-4.3c0-11-0.1-22-0.1-33.1
		c0-13.2,0-26.4,0.1-39.6c1.5-0.6,2.2,0.5,2.9,1.5c5.5,7,10.9,14,16.3,21.1c3.3,4.2,6.7,8.3,9.5,12.8c0.5,0.9,1.3,1.4,2.3,1.6
		c1.3,0.7,1.8,2,2.4,3.3c4.1,7.9,9.4,14.9,16.3,20.6c0.8,0.6,1.4,1.3,1.6,2.3c0,0.8,0,1.5,0.6,2.3c8.7,9.9,16.4,20.7,24.5,31.1
		c9.4,12,18.7,24.1,28,36.1c1,1.3,2.1,1.9,3.7,1.8c2.6,0,5.2,0,7.8,0c1,0,2.1-0.2,2.9,0.8C119.2,252.6,119.2,252.9,119,253.1z"/>
	<path fill="#803158" d="M158,150.7c0.4,2.5,2.4,4,3.8,5.8c7.5,9.9,15.2,19.6,22.8,29.4c0.4,0.6,0.7,1.6,1.5,1.4
		c1.1-0.2,0.6-1.4,0.6-2.1c0-33.5,0-66.9,0-100.4c-1-1.3-1.1-2.9-1.1-4.4c0-22.4,0-44.8,0-67.2c0-1.2-0.2-2.5,0.9-3.4
		c1.4-0.3,1.6,0.7,1.7,1.7c0.2,1.1,0.1,2.3,0.1,3.4c0,65.1,0.1,130.1-0.1,195.2c0,11-0.3,22.1-0.4,33.1c0,3.4-1.5,5.9-4.1,8.3
		c2.8,0,5.2-0.1,7.7,0c1.1,0,2.3-0.2,3.3,0.7c0.2,0.2,0.3,0.5,0.3,0.9c-5.8,0-11.7,0.1-17.5,0.1c-3.9,1.1-7.8,0.5-11.7,0.4
		c-3.5-3.1-6-7-8.8-10.6c-10.4-13.3-20.7-26.8-31.1-40.1c-2.3-2.9-4.5-5.9-6.8-8.8c-1.1-1.4-1.1-2.8-0.2-4.3c2.4-2.3,5.7-3,8.5-4.6
		c12.9-7.7,22.3-18.3,28.3-32.1C156.1,152,156.3,150.5,158,150.7z"/>
	<path fill="#7D2D54" d="M78.5,0.1c-2.3,1.4-2.4,1.9-0.7,4.1c7.3,9.5,14.5,18.9,21.8,28.3c6.4,8.3,12.9,16.7,19.4,25
		c2.8,3.7,5.7,7.3,8.4,11c0.6,0.8,1.4,1.3,2.5,1.3c0.7,1.5-0.5,2.4-1.2,3.4c-2.9,4-2.9,3.9,0.8,7c11.2,9.3,18.8,20.9,21.6,35.3
		c0.4,2,0.7,4,0.9,6c-0.3,2.2-0.6,4.5-0.5,6.8c0,0.9,0.1,1.9-1,2.3c-1.2,0.4-2-0.1-2.8-1c-2.1-2.5-4-5.1-6-7.6c-2.3-3-4.6-6-7-9.1
		c-0.8-1-1.4-2.2-1.8-3.4c-0.4-1.1,0.1-2.1,0.7-3c1.2-2,2.2-4.1,3.2-6.3c0.2-0.7,0.2-1.5-0.2-2.2c-1.1-1.6-2.7-1.8-4.5-1.8
		c-3.4-0.1-6.8,0.4-10.1-0.4c-6.4-6.9-11.6-14.7-17.5-22c-1-1.3-2.2-2.9,0-4.3c1.6-0.4,3,0.3,4.5,0.6c1.7,0.3,2.9-0.3,3.4-1.9
		c1.9-5.7,1.9-6.2-3.7-7.6c-7.3-1.7-14.7-1.8-22.2-1.3c-0.9,0.2-1.7,0.1-2.6,0.2c-4.2,0.5-8.2,1.9-12.4,2.7
		c-2.7-0.8-3.9-3.4-5.4-5.4C52.2,39,38.3,21,24.4,3c-0.7-0.9-2.2-1.3-1.9-2.9C41.1,0.1,59.8,0.1,78.5,0.1z"/>
	<path fill="#5B153E" d="M195.1,253.1c0-0.1,0-0.2,0-0.3c0.4-1.1,1.4-1.4,2.2-1.7c5.2-1.8,7.3-5.8,7.7-11c0.1-1.5,0.1-3.1,0.1-4.6
		c0-52.3,0-104.5,0-156.8c0-2.9,0.2-5.8,0.4-8.8c0.1-1.5-0.4-2.9-0.6-4.3c1.4-7.7,3.6-15.1,5.3-22.8c0.2-0.8,0.4-1.6,0.5-2.4
		c0.5-2.8-0.4-4.3-3.1-5.1c-0.6-0.2-1.3-0.3-1.7-0.8c-0.8-1.3-0.7-2.8-0.8-4.2c-0.1-4.2,0.4-8.4-0.3-12.6c-1.1-5.9-4-8.7-9.9-9.7
		c-2.6-0.3-5.1-1.1-7.7-0.9c-1.1,0.1-1.9-0.5-2.7-1.4c-2.1-2.6-4.7-4.1-8.1-4.1c-1,0-2.2,0-2.3-1.5c11.5,0,23.1-0.2,34.6,0
		c6.5,0.1,10.7,4.8,10.7,11.3c0,76.6,0,153.2,0.1,229.9c0,6.1-4,11.7-11.3,11.9C203.9,253.3,199.5,253.1,195.1,253.1z"/>
	<path fill="#803158" d="M22.5,0.1c2.9,1.1,4.1,3.9,5.8,6.1c9,11.5,17.9,23.1,26.8,34.6c5.4,6.9,16.2,20.7,16.2,20.7L34.3,85
		c0,0-14.1-18.3-21.2-27.4C8.8,52.1,4.6,46.4,0.1,41c0-9.4-0.2-18.8,0-28.2C0.1,7,5.2,1.5,10.9,0.5C14.7-0.2,18.6,0.1,22.5,0.1z"/>
	<path fill="#78264D" d="M174.1,0.1c0.5,0.1,0.9,0.4,1.4,0.4c4.4-0.4,7.8,1.4,10.3,5c0.7,0.9,1.6,0.9,2.6,1c2.2,0.2,4.5-0.4,6.7,0.4
		c-0.7,1.6-2.2,1.2-3.3,1.2c-1.9,0-3.6,0.2-4.9,1.8c0,21.2,0,42.3-0.1,63.5c0,3.9,0,7.8,0,11.7c-1.6-0.5-2.3-2-3.2-3.2
		c-16.1-20.7-32.1-41.4-48.1-62.1c-4.5-5.8-9-11.5-13.3-17.4c-1-1.4-2.1-1.7-3.7-1.8c-2.2-0.1-4.5,0.4-6.7-0.4c4.3,0,8.6,0,12.9-0.1
		c1.9,0,2.4,1.4,3.2,2.6c0.9,1.2,1.7,2.6,2.5,3.9c1.4,0.7,2.3,1.9,3.2,3.2c3.2,4.9,6.7,9.7,9.9,14.6c0.7,1.1,1.4,2.4,2.8,2.9
		c0.7,0.2,1.4,0.2,2.1-0.2c1.5-1,1.6-2.6,1.7-4.1c0.5-4.3,1.2-8.5,1.6-12.7c0.1-1.4,0.5-2.7,1.6-3.7c0.1-6.3,0.1-6.3,6.4-6.3
		C164.4,0,169.3,0.1,174.1,0.1z"/>
	<path fill="#83355C" d="M0.1,41c1.2-0.1,1.9,0.4,2.6,1.3C11.3,53.6,20,64.7,28.7,75.9c2.3,2.9,4.6,5.9,6.8,8.8
		c0.7,0.9,1.4,1.5,2.7,1.2c0.9,1.2,0,2.2-0.6,3.1c-5.6,8.7-9.3,18.1-10.8,28.4c-1.2,8.1-0.7,16,1,23.9c0.8,3.7,1.7,7.4,3.1,11
		c0.3,0.8,0.5,1.6-0.1,2.3c-1.1,0.7-1.4-0.2-1.9-0.8c-9-11.6-17.9-23.2-26.9-34.7c-0.5-0.7-1.2-1.3-1.8-1.9c0-9-0.1-18-0.1-27
		C0,73.7,0.1,57.4,0.1,41z"/>
	<path fill="#5B153E" d="M165.4,252.7c3.2,0,6.4,0,9.7,0c0.9,0,1.8,0.1,2.6,0.5c0,16.9-0.1,33.8,0,50.7c0,2.3-0.7,3.8-2.5,5.3
		c-6.6,5.7-12.1,12.4-16.7,19.8c-0.9,1.4-1.8,2.9-2.7,4.3c-0.8,1.3-1.7,2.4-3.5,1.9c-1.7-0.5-2-1.8-2-3.4c0-17.7,0-35.4,0-53.1
		c0-8.5,0-17.1,0-25.6c0-0.2,0.1-0.3,0.1-0.5c0.5-0.9,1.4-1.1,2.3-1.1c3.4-0.2,6.8-0.1,10.1,0C163.8,251.6,164.6,252,165.4,252.7z"
		/>
	<path fill="#7A2B5A" d="M48.8,252.7c6.6,0,13.3,0,19.9,0c1,0,2.1-0.2,3,0.5c0,16,0,32,0,48c0,2.2-0.3,4.1-2.6,4.9
		c-2.3,0.8-3.8-0.7-5.1-2.4c-2.9-3.9-5.7-7.9-8.8-12.2c-2.6,3.4-5,6.7-7.5,10c-0.8,1-1.7,2-2.3,3.1c-1.2,2.1-3.1,2-4.9,1.6
		c-1.7-0.3-2.1-2-2.5-3.6c-0.2-0.7-0.1-1.5-0.1-2.2c0-15.8,0-31.5,0-47.3c-0.1-0.7,0.3-1.2,0.8-1.3
		C42.2,251.5,45.6,250.7,48.8,252.7z"/>
	<path fill="#893D64" d="M48.8,252.7c-2.7,0-5.5,0-8.2,0c-0.9,0-1.8-0.1-2.5,0.5c-7.8,0-15.6,0-23.4-0.1c-4.9,0-9.2-1.4-12.2-5.6
		c-1.3-1.8-2.5-3.8-2.5-6.2c0-17.2,0-34.4,0.1-51.6c2.9,2.3,4.6,5.6,6.9,8.4c4.5,5.6,8.6,11.5,13.3,16.9c0.7,0.8,0.6,1.6,0.6,2.5
		c0.4,0.2,0.8,0.5,1,1c0.6,1.8,1.7,3.1,3.8,3.3c0.5,0.1,0.8,0.5,1.1,0.9c0.7,2.8,3,4.6,4.6,6.8c5.4,7.1,10.9,14.1,16.3,21.2
		C48.2,251.4,48.7,251.9,48.8,252.7z"/>
	<path fill="#B47A76" d="M153.1,6.4c-0.8,6.3-1.6,12.7-2.4,19c-0.2,1.6-1.3,2.4-2.5,3c-0.8,0.2-1.6,0.2-2.4,0c-1-0.2-1.5-0.8-2-1.6
		c-4.2-6.2-8.4-12.3-12.6-18.4c-0.4-0.6-0.7-1.3-1-1.9C137.9,6.4,145.5,6.4,153.1,6.4z"/>
	<path fill="#9D5569" d="M119,253.1c0-0.1,0-0.3,0-0.4c0.6-1.2,1.7-1.1,2.8-1.1c8.5-0.1,17.1-0.1,25.6,0c1.1,0,2.4-0.2,2.7,1.4
		c0,0.1,0.1,0.2,0.2,0.2C139.8,253.2,129.4,253.1,119,253.1z"/>
	<path fill="#FEFEFE" d="M150.8,121.2c-1.2-11.6-5.4-22.1-13-31.1c-3.5-4.1-7.4-7.8-11.7-11c-1.5-1.1-1.7-2.3-0.5-3.7
		c1.5-1.8,2.9-3.7,4.3-5.6c1.4-0.5,2.4,0,3.6,0.9c24.9,17.9,35,49.4,25,78.4c-0.2,0.5-0.3,1.1-0.5,1.6c-3.2,7.5-7.1,14.5-12.5,20.7
		c-6.8,7.8-15,13.9-24.5,18.1c-0.5,0.2-1,0.5-1.5,0.8c-3.4,3.6-8.1,3.9-12.5,4.8c-10.9,2.1-21.8,1.8-32.5-1.3
		c-0.9-0.2-1.7-0.5-2.5-0.9c-1.7-0.9-2.5-2.2-2.3-4.1c0.3-1.9,0.4-3.9,0.9-5.8c0.5-2.1,1.6-3,3.8-3c1.1,0,2.1,0.3,3.1,0.6
		c8.5,2.5,17.2,2.9,26,1.4c0.7-0.1,1.5-0.1,2.2-0.2c6.7-2,13-4.7,18.8-8.7c3.8-2.6,6.8-5.9,10.2-8.9c5-5.9,9.3-12.3,12-19.6
		c1.2-3.1,1.9-6.4,2.6-9.6c0.9-3.9,2.2-7.7,1.6-11.8C150.9,122.5,151,121.9,150.8,121.2z"/>
	<path fill="#83355C" d="M106.4,182.5c-9.1,2.5-18.3,2-27.4-0.2c-0.5-0.1-0.9-0.2-1.4-0.4c-5.4-1.6-5.4-1.6-6.3,3.9
		c-0.9,5.9-0.9,5.9,5.2,7.4c14.1,3.4,28,2.8,41.6-2.4c0.4-0.2,0.9-0.3,1.4-0.4c-0.7,1.2-0.2,2.2,0.5,3.1c14.8,19,29.5,38,44.3,57.1
		c0.5,0.7,0.9,1.4,1,2.2c-5.1,0.2-10.2-0.4-15.3,0.3c-0.7-0.5-1.6-0.3-2.4-0.3c-9.6,0-19.1,0-28.7,0c-3.8,0-7.6,0-11.5,0
		c-1.5,0-2.6-0.5-3.5-1.7c-12.8-16.7-25.6-33.3-38.5-49.9c-4.7-6-9.4-12-14-18.1c-0.6-0.7-1.5-1.4-0.6-2.5c1.3-0.5,2.2,0.4,3,1
		c2.2,1.6,4.4,3,6.7,4.3c2.5,1.4,3.9,0.9,4.9-1.8c0.1-0.2,0.2-0.5,0.2-0.7c1.5-4.1,1.5-4.1-2.2-6.4c-13.6-8.3-22.8-20.1-26.7-35.4
		c-4.7-18.3-1.5-35.4,10.1-50.6c0.7-0.9,1.5-1.7,2.9-1.5c1.7,1.6,3.8,3,3.4,5.8c-0.1,0.3-0.2,0.6-0.5,0.8c-3,3-3,3.2-1,6.8
		c3.6,6.8,7.3,13.6,11,20.3c1.2,2.1,1.2,4,0,6.2c-3.8,6.9-7.5,13.8-11.2,20.8c-2,3.9-1,6.1,3.4,6.2c6.9,0.2,13.8,0.2,20.7,0
		c3.6-0.1,5.8,1,7.4,4.4c2.1,4.6,4.8,8.9,7.1,13.3c0.3,0.6,0.7,1.1,1.1,1.6c1.7,2.1,3.7,2,5.1-0.2c0.8-1.3,1.2-2.9,3.1-3.2
		c3,1.6,4.3,4.6,6.3,7.1C106.4,180.3,107.1,181.3,106.4,182.5z"/>
	<path fill="#FEFEFE" d="M49.7,89.6c-7.3,8.2-11.8,17.7-13,28.5c-3,25.7,7,45.3,29.1,58.7c2.1,1.3,2.9,2.7,1.9,5
		c-0.5,1.1-0.9,2.3-1.3,3.4c-1,2.6-2.5,3.3-5.1,2c-3.8-1.8-7.2-4.2-10.4-6.9c-6-5.2-11.4-10.8-15.5-17.6c-1.6-2.7-3.1-5.5-4.6-8.2
		c-9.7-23.8-7.5-46.5,7-67.8c0.2-0.3,2.8-3.7,4-5.1c1.8-2.1,2.8-2.3,5.2-0.7c0.9,0.6,1.7,1.2,3.1,2.1c-0.8-1.6-1.2-2.7-1.8-3.7
		c-1.3-2.1-0.9-3.7,1-5.2C55.5,69,62.4,65,69.9,62.1c0.4-0.2,0.9-0.4,1.3-0.6c4.2-1.3,8.4-2.2,12.7-3c0.8-0.4,1.7,0.1,2.5-0.4
		c8.6-0.4,17.2-0.2,25.5,2.3c3.1,0.9,3.5,1.7,2.7,4.7c-2.1,7.9-2.5,7-10.2,5.1c-2.6,0.9-5.2,0-7.8,0.1c-1.8-0.3-3.6-0.3-5.4,0
		c-4.3,0.1-8.4,1.1-12.6,1.8c-9.5,2.7-17.7,7.5-24.8,14.4C52.6,87.7,51.7,89.4,49.7,89.6z"/>
	<path fill="#5B153E" d="M26.8,222.9c-4.2,0.2-5.6-1.1-5.8-5.3c0.8-3.1,0.6-6.2,0.9-9.4c0.2-1.6,0.2-3.2,0.4-4.8
		c0.3-1.9,1.3-3.1,3.1-3.5c2-0.4,3.4,0.5,4.3,2c0.8,1.3,1.3,2.8,2,4.2c1.2,2.5,2.3,5,3.5,7.5c1.5,3.4,0.8,5.1-2.5,6.7
		C30.8,221.2,28.6,221.6,26.8,222.9z"/>
	<path fill="#B47A76" d="M186.9,9.7c-0.5-2.3,0.3-3.2,2.7-2.9c1.8,0.2,3.7,0,5.6,0c7,1,10.9,5.4,11.1,12.5c0.1,4.9,0.1,9.9,0.2,14.8
		c-0.5,1.1-1.5,1.1-2.5,1.1c-1.9,0.1-3.9,0-5.8,0.1c-1.8,0-2.7,0.9-2.7,2.7c0,1,0,1.9,0,2.9c0,18.7,0,37.3,0,56
		c0,4.1,0.2,8.3-0.4,11.9c0.2-2.4,0.7-5.3,1.4-8.1c2.7-10.9,5.2-21.8,8-32.6c0.3-1.2,0.1-2.9,2-3.2c0,58,0,116,0,174
		c0,3.8-0.6,7.3-3.3,10.1c-2.1,2.2-4.8,3.3-7.8,3.7c-4.9,0-9.9,0-14.8,0c0-0.1-0.1-0.3-0.1-0.4c0.6-0.3,1.2-0.6,1.8-1
		c2.9-1.8,4.8-4.4,4.8-7.9c0-0.3,0-0.7,0-1c0.6-76.7,0.2-153.4,0.3-230.2C187.2,11.4,187.3,10.5,186.9,9.7z"/>
	<path fill="#FEFEFE" d="M99.4,172.5c-0.7,1.2-1.4,2.4-2.1,3.5c-2,3.3-5.6,3.4-7.5,0c-2.9-5.3-5.9-10.5-8.5-15.9
		c-1.1-2.3-2.5-2.9-4.9-2.8c-7.1,0.2-14.3,0.1-21.5,0.1c-5.8,0-7.4-2.6-4.7-7.6c3.8-7,7.5-14,11.4-21c1.1-1.9,0.9-3.3-0.1-5.1
		c-3.9-7.1-7.7-14.3-11.6-21.4c-2-3.7-1.3-5.6,2.6-7.2c0.9-1.2,2.2-1.1,3.5-1.1c6.5,0,13-0.1,19.4,0c2.6,0.1,4.2-0.9,5.3-3.3
		c1.4-3.1,3.2-6,4.8-9c0.7-2.3,1.9-4.5,3.3-6.5c2.2-3.4,7.1-2.9,9.3,0.7c3,5,5.6,10.2,8.4,15.3c1.1,2,2.5,2.8,4.6,2.7
		c2.4-0.1,4.9,0,7.3,0c1.2,0,2.4,0.2,3.4,1.1c3.6,0,7.2,0.1,10.8,0.1c2.4,0,4.2,0.6,5.3,2.8c0.2,0.8,0.2,1.6,0,2.4
		c-1.5,2.9-3.3,5.7-4.5,8.7c0,3.9-2.8,6.6-4.2,9.9c-0.3,0.7-0.7,1.5-1.2,2.1c-2.9,3.7-1.9,7.1,0.3,10.9c3.5,5.8,6.6,11.9,9.7,18
		c0.3,0.6,0.7,1.3,0.8,2c0.6,3.7-1.4,6.1-5.4,6.5c-1.4,0.1-2.7-0.5-4.1,0c-6,0.1-12,0.1-18,0c-2.4,0-3.9,0.7-5,2.9
		c-1.5,3-3.2,6-4.9,8.9C101.1,171.4,100.8,172.5,99.4,172.5z"/>
	<path fill="#7E2F55" d="M129.7,157.5c1.2,0,2.4-0.1,3.6-0.1c4.2-0.1,6-3,4-6.7c-4-7.5-8-15-12.1-22.4c-0.8-1.4-0.8-2.4,0-3.8
		c2.9-5,5.6-10.2,8.4-15.3c3.2,5.1,7.3,9.7,10.9,14.6c1.4,1.8,2.8,3.6,4.2,5.4c0.4,0.5,0.7,1,1.4,0.8c0.7-0.2,0.6-0.9,0.6-1.4
		c0-2.4,0-4.9,0.1-7.3c1.1,6.3,0.3,12.6-1.4,18.7c-2.6,9.5-7.3,17.9-14.2,25c-0.6,0.2-1.3,0.2-1.8-0.2c-1.5-1.6-3-3.4-4-5.4
		C129.1,158.7,129.3,158.1,129.7,157.5z"/>
	<path fill="#7E2F55" d="M121.9,95.1c-4.4,0-8.7,0-13.1,0.2c-1.4,0-1.8-0.7-2.3-1.7c-2.9-5.4-5.9-10.8-8.7-16.2
		c-1-1.8-2.1-3.3-4.4-3.2c-2.3,0-3.4,1.2-4.1,3.3c-0.6,1.6-1.7,3-2.5,4.6c-1.1,0.9-2,0.5-2.8-0.4c-2.1-2.4-4.1-5-6-7.7
		c-0.6-0.9-0.8-1.8,0-2.6c4.2-1.2,8.5-2.1,12.9-2c1.9-0.4,3.9-0.3,5.8,0c2.6-0.1,5.2,0.2,7.7,1c-0.8,1.8,0.8,2.7,1.6,3.8
		c5,6.5,10,13,15,19.5C121.4,94,121.9,94.5,121.9,95.1z"/>
	<path fill="#803158" d="M86.4,58.1c-0.8,0.4-1.7,0.4-2.5,0.4C84.7,58,85.6,58.1,86.4,58.1z"/>
	<path fill="#7E2F55" d="M138.2,100.5c0-0.8,0-1.6,0-2.4C138.6,98.9,138.6,99.7,138.2,100.5z"/>
	<path fill="#DCADA8" d="M206.2,64.9c-2.1,8.5-4.2,17-6.2,25.5c-1.8,7.5-3.6,15-5.8,22.4c-0.1-0.6-0.2-1.1-0.2-1.7
		c0-24.7,0-49.4-0.1-74c0-2.4,0.8-3.1,3.1-3c3.1,0.2,6.2,0,9.3,0c5.1,0.1,6.6,2.2,5.5,7.2C210,49.2,208.1,57,206.2,64.9z"/>
	<path fill="#5B153E" d="M175,47.8c0,1.4,0.2,2.8,0,4.1c-0.4,2.6-3,3.4-5,1.6c-3.4-3.1-4-8.1-1.2-11.8c0.8-1.1,1.9-1.5,3.2-1.2
		c1.7,0.4,2.8,1.4,3,3.1C175.2,45.1,175,46.5,175,47.8z"/>
	<path fill="#7B2B52" d="M145.9,28.4c0.8,0,1.6,0,2.4,0C147.4,28.9,146.7,28.9,145.9,28.4z"/>
	<path fill="#813359" d="M129.7,157.5c1.3,2.9,3.2,5.2,5.5,7.4c-7.9,8.7-17.3,14.9-28.9,17.5c-1.5-2.9-3.8-5.2-5.7-7.8
		c-0.5-0.7-1-1.2-1.2-2.1c2.5-4.7,5-9.4,7.4-14.1c0.4-0.7,0.9-1,1.7-1C115.7,157.5,122.7,157.5,129.7,157.5z"/>
	<path fill="#803057" d="M78,71.3c1.1,3.5,4,5.7,6,8.6c0.7,0.9,1.2,2.2,2.7,2.1c-1.8,4.3-4.4,8.3-6.5,12.4c-0.4,0.8-1.1,0.9-1.8,0.8
		c-8.6,0-17.2-0.1-25.8-0.1c-0.2-2.3-2.8-3.3-3-5.5C57.2,80.5,66.6,74.4,78,71.3z"/>
	<path fill="#803057" d="M96.8,69.2c-1.9,0-3.9,0-5.8,0C92.9,68.7,94.8,68.9,96.8,69.2z"/>
	<path fill="#803158" d="M93.1,149.1c-2.4-0.2-6,1.1-8.3-0.5c-2.1-1.5-3-4.9-4.4-7.4c-2.4-4.3-4.7-8.7-7.1-13
		c-0.7-1.3-0.7-2.3,0-3.6c3.5-6.4,7-12.8,10.4-19.3c0.7-1.3,1.4-1.7,2.8-1.7c4.6,0.1,9.3,0.1,13.9,0c1.4,0,2.2,0.3,2.9,1.6
		c3.5,6.6,7,13.2,10.6,19.7c0.6,1.1,0.6,1.9,0,2.9c-3.6,6.5-7.1,13.1-10.6,19.7c-0.6,1.1-1.3,1.7-2.7,1.6
		C98.4,149,96,149.1,93.1,149.1z"/>
	<path fill="#83355C" d="M67.8,135.1c2.6,4.8,5,9.2,7.5,14c-4.8,0-9.3,0-13.7,0c-1.2,0-1.1-0.6-0.6-1.4
		C63.1,143.7,65.3,139.6,67.8,135.1z"/>
	<path fill="#813258" d="M119.5,135.1c2.6,4.8,5,9.2,7.5,14c-4.8,0-9.3,0-13.7,0c-1.2,0-1.1-0.5-0.7-1.3
		C114.9,143.7,117,139.6,119.5,135.1z"/>
	<path fill="#82335A" d="M67.7,117.6c-2.4-4.5-4.6-8.5-6.8-12.6c-0.6-1-0.5-1.4,0.8-1.4c4.4,0,8.7,0,13.5,0
		C72.7,108.4,70.3,112.8,67.7,117.6z"/>
	<path fill="#7F3057" d="M119.5,117.6c-2.4-4.5-4.6-8.6-6.8-12.6c-0.4-0.7-0.7-1.4,0.6-1.4c4.4,0,8.9,0,13.8,0
		C124.5,108.3,122.1,112.7,119.5,117.6z"/>
	<path fill="#803158" d="M93.6,87.2c1.4,2.5,2.5,4.6,3.6,6.7c0.5,0.9,0.3,1.3-0.8,1.3c-0.1,0-0.2,0-0.2,0c-2.2-0.1-4.3-0.1-6.5-0.2
		c0.2-2.2,1.8-3.7,2.6-5.6C92.6,88.9,93,88.3,93.6,87.2z"/>
	<path fill="#83355B" d="M93.6,165.5c-1.5-2.8-2.8-5.2-4.2-7.8c2.6-0.5,5-0.2,7.4-0.2c0.8,0,1,0.4,0.6,1.1
		C96.2,160.7,95,162.9,93.6,165.5z"/>
</g>
<path fill="#FEFEFE" d="M38.2,85.9"/>
<path fill="#803158" d="M71.2,61.5"/>
<path fill="#803158" d="M71.2,61.5"/>
<path fill="#803158" d="M71.2,61.5"/>
<path fill="#7D2D54" d="M71.2,61.5"/>
<path fill="#803158" d="M71.2,61.5"/>
<rect x="36.2" y="152.3" transform="matrix(-0.79 0.6131 -0.6131 -0.79 177.1246 274.6287)" fill="#873A61" width="10.6" height="30.7"/>
<path fill="#83355C" d="M168.1,252.3L1,37c-0.3-0.4-1-0.2-1,0.3v79.2c0,0.1,0,0.2,0.1,0.3L105.8,253c0.1,0.1,0.3,0.2,0.4,0.2h61.4
	C168.2,253.2,168.4,252.7,168.1,252.3z"/>
<rect x="78.6" y="16.4" transform="matrix(-0.79 0.6131 -0.6131 -0.79 256.5497 172.2427)" fill="#803158" width="40.3" height="227.3"/>
<polygon fill="#7D2D54" points="187.2,145.4 77.3,3.7 45.4,28.4 187.2,211.1 "/>
<polygon fill="#7B2B52" points="187.2,86.4 122,2.3 93.3,24.6 164.3,116.1 187.2,98.4 "/>
<path fill="#FEFEFE" d="M150.4,119.1c-1.2-11.6-5.4-22.1-13-31.1c-3.5-4.1-7.4-7.8-11.7-11c-1.5-1.1-1.7-2.3-0.5-3.7
	c1.5-1.8,2.9-3.7,4.3-5.6c1.4-0.5,2.4,0,3.6,0.9c24.9,17.9,35,49.4,25,78.4c-0.2,0.5-0.3,1.1-0.5,1.6c-3.2,7.5-7.1,14.5-12.5,20.7
	c-6.8,7.8-15,13.9-24.5,18.1c-0.5,0.2-1,0.5-1.5,0.8c-3.4,3.6-8.1,3.9-12.5,4.8c-10.9,2.1-21.8,1.8-32.5-1.3
	c-0.9-0.2-1.7-0.5-2.5-0.9c-1.7-0.9-2.5-2.2-2.3-4.1c0.3-1.9,0.4-3.9,0.9-5.8c0.5-2.1,1.6-3,3.8-3c1.1,0,2.1,0.3,3.1,0.6
	c8.5,2.5,17.2,2.9,26,1.4c0.7-0.1,1.5-0.1,2.2-0.2c6.7-2,13-4.7,18.8-8.7c3.8-2.6,6.8-5.9,10.2-8.9c5-5.9,9.3-12.3,12-19.6
	c1.2-3.1,1.9-6.4,2.6-9.6c0.9-3.9,2.2-7.7,1.6-11.8C150.5,120.3,150.6,119.7,150.4,119.1z"/>
<path fill="#FEFEFE" d="M49.3,87.5c-7.3,8.2-11.8,17.7-13,28.5c-3,25.7,7,45.3,29.1,58.7c2.1,1.3,2.9,2.7,1.9,5
	c-0.5,1.1-0.9,2.3-1.3,3.4c-1,2.6-2.5,3.3-5.1,2c-3.8-1.8-7.2-4.2-10.4-6.9c-6-5.2-11.4-10.8-15.5-17.6c-1.6-2.7-3.1-5.5-4.6-8.2
	c-9.7-23.8-7.5-46.5,7-67.8c0.2-0.3,0.3-0.6,0.4-0.9c1.2-1.4,2.4-2.9,3.6-4.3c1.8-2.1,2.8-2.3,5.2-0.7c0.9,0.6,1.7,1.2,3.1,2.1
	c-0.8-1.6-1.2-2.7-1.8-3.7c-1.3-2.1-0.9-3.7,1-5.2c6.2-5.2,13.1-9.2,20.7-12.1c0.4-0.2,0.9-0.4,1.3-0.6c4.2-1.3,8.4-2.2,12.7-3
	c0.8-0.4,1.7,0.1,2.5-0.4c8.6-0.4,17.2-0.2,25.5,2.3c3.1,0.9,3.5,1.7,2.7,4.7c-2.1,7.9-2.5,7-10.2,5.1c-2.6,0.9-5.2,0-7.8,0.1
	c-1.8-0.3-3.6-0.3-5.4,0c-4.3,0.1-8.4,1.1-12.6,1.8c-9.5,2.7-17.7,7.5-24.8,14.4C52.2,85.5,51.3,87.3,49.3,87.5z"/>
<g>
	<path fill="#FFFFFF" d="M123.3,162.6c-9.8-7-19.6-13.9-29.3-20.9c-0.8-0.6-2.2-0.6-3,0c-9.6,7.2-19.3,14.3-28.9,21.5
		c1.5,1.1,2.9,2.3,4.4,3.4c3.6-11.5,7.2-22.9,10.8-34.4c0.4-1.4-0.3-2.6-1.4-3.4c-9.8-7-19.6-13.9-29.3-20.9c-0.5,1.9-1,3.7-1.5,5.6
		c12-0.1,24-0.2,36-0.4c1.4,0,2.5-0.9,2.9-2.2c3.6-11.5,7.2-22.9,10.8-34.4c-1.9,0-3.9,0-5.8,0c3.8,11.4,7.6,22.8,11.5,34.1
		c0.4,1.3,1.5,2.2,2.9,2.2c12-0.1,24-0.2,36-0.4c-0.5-1.9-1-3.7-1.5-5.6c-9.6,7.2-19.3,14.3-28.9,21.5c-1,0.8-1.8,2-1.4,3.4
		c3.8,11.4,7.6,22.8,11.5,34.1c1.2,3.6,7,2.1,5.8-1.6c-3.8-11.4-7.6-22.8-11.5-34.1c-0.5,1.1-0.9,2.3-1.4,3.4
		c9.6-7.2,19.3-14.3,28.9-21.5c2.2-1.7,1.7-5.6-1.5-5.6c-12,0.1-24,0.2-36,0.4c1,0.7,1.9,1.5,2.9,2.2c-3.8-11.4-7.6-22.8-11.5-34.1
		c-0.9-2.8-4.9-2.9-5.8,0c-3.6,11.5-7.2,22.9-10.8,34.4c1-0.7,1.9-1.5,2.9-2.2c-12,0.1-24,0.2-36,0.4c-3.2,0-3.8,3.9-1.5,5.6
		c9.8,7,19.6,13.9,29.3,20.9c-0.5-1.1-0.9-2.3-1.4-3.4c-3.6,11.5-7.2,22.9-10.8,34.4c-0.7,2.3,2.3,5,4.4,3.4
		c9.6-7.2,19.3-14.3,28.9-21.5c-1,0-2,0-3,0c9.8,7,19.6,13.9,29.3,20.9C123.4,170,126.4,164.8,123.3,162.6z"/>
</g>
<line fill="none" stroke="#FFFFFF" stroke-width="6" stroke-miterlimit="10" x1="62" y1="110.3" x2="115.6" y2="109.8"/>
<line fill="none" stroke="#FFFFFF" stroke-width="6" stroke-miterlimit="10" x1="63.5" y1="123.6" x2="101.4" y2="150.7"/>
<line fill="none" stroke="#FFFFFF" stroke-width="6" stroke-miterlimit="10" x1="114.4" y1="143.1" x2="101.4" y2="104.5"/>
<line fill="none" stroke="#FFFFFF" stroke-width="6" stroke-miterlimit="10" x1="85.2" y1="96.7" x2="71.1" y2="141.7"/>
<path fill="none" stroke="#FFFFFF" stroke-width="6" stroke-miterlimit="10" d="M82.7,151.5l38-28.2L82.7,151.5z"/>
</svg>
