<?xml version="1.0" standalone="no"?>
<!DOCTYPE svg PUBLIC "-//W3C//DTD SVG 20010904//EN"
 "http://www.w3.org/TR/2001/REC-SVG-20010904/DTD/svg10.dtd">
<svg version="1.0" xmlns="http://www.w3.org/2000/svg"
 width="700.000000pt" height="700.000000pt" viewBox="0 0 700.000000 700.000000"
 preserveAspectRatio="xMidYMid meet">
<metadata>
Created by potrace 1.14, written by Peter Selinger 2001-2017
</metadata>
<g transform="translate(0.000000,700.000000) scale(0.100000,-0.100000)"
fill="#000000" stroke="none">
<path d="M3457 6564 c-1 -1 -57 -4 -124 -7 -135 -7 -261 -21 -368 -42 -38 -8
-83 -16 -100 -19 -50 -9 -68 -13 -115 -26 -66 -17 -242 -70 -265 -79 -11 -5
-58 -23 -105 -41 -113 -44 -304 -136 -413 -199 -77 -44 -293 -186 -307 -201
-3 -3 -39 -32 -80 -65 -587 -469 -999 -1181 -1105 -1910 -4 -22 -8 -50 -10
-63 -5 -29 -16 -134 -20 -198 -5 -64 -6 -356 -1 -414 4 -46 15 -155 21 -200
10 -78 16 -115 40 -235 25 -134 101 -374 169 -538 34 -82 127 -272 178 -362
23 -40 150 -236 168 -258 5 -7 46 -58 91 -115 107 -135 258 -292 393 -408 86
-74 112 -92 122 -83 8 6 14 15 14 19 0 4 45 84 99 179 l100 172 -32 27 c-54
46 -280 274 -327 331 -61 73 -166 220 -223 313 -43 69 -167 309 -167 323 0 3
-9 24 -19 48 -69 151 -143 429 -175 657 -24 178 -25 539 0 663 2 12 7 42 10
67 3 25 15 86 25 135 11 50 22 101 25 115 11 56 70 232 109 330 99 245 233
471 414 695 53 65 248 266 302 310 13 11 47 38 74 61 299 244 708 439 1085
518 92 20 121 25 169 31 30 4 63 8 74 11 117 22 496 21 647 -2 193 -29 327
-60 494 -114 57 -18 102 -28 107 -23 9 9 109 180 171 293 17 30 35 60 39 66 6
8 -5 16 -33 27 -115 43 -296 99 -408 126 -132 31 -168 38 -305 56 -27 3 -60 8
-73 10 -42 7 -360 23 -365 19z"/>
<path d="M5300 5768 c-46 -79 -95 -164 -110 -189 l-28 -47 76 -68 c521 -468
832 -1097 879 -1779 26 -378 -30 -769 -158 -1109 -102 -268 -296 -592 -484
-805 -334 -380 -781 -662 -1256 -795 -68 -19 -137 -37 -154 -40 -106 -22 -108
-22 -275 -45 -166 -22 -462 -18 -634 8 -33 6 -80 13 -103 16 -73 10 -275 62
-380 98 l-101 34 -23 -41 c-12 -22 -60 -105 -106 -184 -45 -79 -83 -147 -83
-151 0 -15 255 -103 405 -140 587 -146 1185 -118 1754 81 513 180 972 499
1327 922 77 92 244 317 244 330 0 3 16 31 36 62 178 278 348 742 398 1084 42
293 49 555 21 805 -3 22 -7 63 -10 90 -3 28 -8 61 -10 75 -9 43 -13 66 -19
101 -11 70 -66 281 -97 371 -72 214 -189 469 -289 628 -5 8 -21 35 -36 60
-149 245 -455 583 -686 758 -14 11 -26 -4 -98 -130z"/>
<path d="M3408 5720 c-45 -25 -79 -69 -100 -135 -9 -27 -71 -219 -138 -425
-67 -206 -158 -486 -202 -622 l-80 -246 -713 0 c-640 0 -717 -2 -748 -17 -118
-56 -149 -202 -65 -305 15 -18 1115 -820 1136 -827 8 -3 10 -14 6 -27 -9 -32
-211 -657 -327 -1011 -107 -329 -115 -371 -82 -434 34 -67 80 -98 152 -106 34
-4 63 -1 87 9 20 8 280 192 579 409 298 217 553 401 567 410 25 15 29 12 325
-205 165 -120 311 -227 325 -236 14 -9 90 -64 169 -122 355 -260 371 -270 437
-270 90 0 180 84 189 177 3 33 -33 170 -64 248 -5 11 -13 36 -19 55 -11 37
-206 638 -298 920 l-54 165 27 22 c16 13 201 149 413 302 356 259 441 320 637
463 82 60 113 107 118 176 5 80 -33 145 -108 184 -37 19 -63 19 -751 19 l-713
0 -30 92 c-17 51 -81 247 -143 437 -61 190 -120 370 -130 400 -10 30 -44 134
-75 230 -60 186 -79 223 -131 260 -48 32 -146 38 -196 10z m221 -1120 c35
-107 71 -219 81 -248 10 -28 15 -54 11 -56 -4 -3 -107 -5 -229 -5 -166 0 -220
3 -217 12 4 13 51 159 145 452 34 105 66 201 71 214 11 27 8 37 138 -369z
m-859 -674 c0 -3 -11 -35 -24 -73 -13 -37 -45 -134 -71 -215 l-47 -147 -37 28
c-42 32 -79 59 -335 245 -105 76 -196 140 -203 143 -47 18 26 23 352 23 201 0
365 -2 365 -4z m1103 -73 c80 -242 188 -585 185 -587 -16 -13 -228 -167 -375
-275 l-182 -132 -63 45 c-35 25 -67 49 -73 53 -5 5 -102 75 -215 157 -113 82
-207 150 -208 152 -4 3 21 84 140 447 l71 217 347 0 347 0 26 -77z m1056 45
c-24 -18 -75 -55 -114 -84 -38 -28 -154 -112 -256 -186 l-187 -136 -27 82
c-14 44 -44 135 -65 201 -21 66 -41 128 -45 138 -7 16 15 17 366 17 l373 0
-45 -32z m-1916 -1134 c98 -70 174 -131 170 -135 -5 -4 -134 -98 -288 -209
-154 -112 -286 -207 -292 -212 -10 -8 -11 -4 -3 18 5 16 54 168 109 338 56
170 101 316 101 324 0 21 11 15 203 -124z m1237 -74 c34 -107 72 -224 85 -260
12 -36 34 -102 48 -147 l25 -83 -52 38 c-28 20 -163 118 -299 216 -245 179
-246 180 -224 197 107 84 342 247 348 241 3 -4 34 -95 69 -202z"/>
</g>
</svg>
