<?xml version="1.0" encoding="utf-8"?>
<!-- Generator: Adobe Illustrator 25.0.1, SVG Export Plug-In . SVG Version: 6.00 Build 0)  -->
<svg version="1.1" id="图层_1" xmlns="http://www.w3.org/2000/svg" xmlns:xlink="http://www.w3.org/1999/xlink" x="0px" y="0px"
	 viewBox="0 0 2844 3778" style="enable-background:new 0 0 2844 3778;" xml:space="preserve">
<style type="text/css">
	.st0{stroke:#000000;stroke-width:3;stroke-miterlimit:10;}
	.st1{stroke:#000000;stroke-width:10;stroke-miterlimit:10;}
</style>
<g>
	<path class="st0" d="M1815.1,2565.5c-712.4,0-1289.8-577.5-1289.8-1289.8c0-605,416.5-1112.6,978.4-1252c-1.1,0-2.2,0-3.4,0
		C702.5,23.7,55.7,670.5,55.7,1468.3s646.8,1444.6,1444.6,1444.6c563,0,1050.8-322.1,1289.2-792.1
		C2553,2393.3,2204.2,2565.5,1815.1,2565.5z"/>
	<circle cx="677.7" cy="3361.7" r="75.2"/>
	<path class="st1" d="M741.2,2761c-232.3,0-429.7,149.7-500.9,357.9c91.3-132,243.7-218.6,416.3-218.6
		c279.3,0,505.8,226.4,505.8,505.8c0,116.5-39.4,223.8-105.6,309.3c129.7-96.5,213.7-250.9,213.7-425
		C1270.5,2998,1033.6,2761,741.2,2761z"/>
</g>
</svg>
