<?xml version="1.0" encoding="utf-8"?>
<!-- Generator: Adobe Illustrator 25.0.1, SVG Export Plug-In . SVG Version: 6.00 Build 0)  -->
<svg version="1.1" id="图层_1" xmlns="http://www.w3.org/2000/svg" xmlns:xlink="http://www.w3.org/1999/xlink" x="0px" y="0px"
	 viewBox="0 0 2844 3778" style="enable-background:new 0 0 2844 3778;" xml:space="preserve">
<style type="text/css">
	.st0{stroke:#000000;stroke-width:3;stroke-miterlimit:10;}
	.st1{stroke:#000000;stroke-width:10;stroke-miterlimit:10;}
	.st2{fill:none;stroke:#000000;stroke-width:14;stroke-miterlimit:10;}
</style>
<g>
	<path class="st0" d="M1836.8,2530.3c-690.5,0-1250.3-559.8-1250.3-1250.3c0-586.4,403.7-1078.5,948.4-1213.6c-1.1,0-2.2,0-3.3,0
		c-773.4,0-1400.3,626.9-1400.3,1400.3S758.2,2867,1531.6,2867c545.8,0,1018.6-312.2,1249.6-767.8
		C2552.1,2363.3,2214,2530.3,1836.8,2530.3z"/>
	<path class="st1" d="M793.1,2724.5c-225.2,0-416.5,145.1-485.6,346.9c88.5-128,236.2-211.9,403.6-211.9
		c270.8,0,490.2,219.5,490.2,490.2c0,112.9-38.2,216.9-102.4,299.8c125.7-93.5,207.2-243.2,207.2-412
		C1306.2,2954.2,1076.5,2724.5,793.1,2724.5z"/>
	<polygon class="st2" points="609.7,3238.6 677.5,3298.8 689.6,3309.4 733.5,3283.6 786.6,3250.4 743.9,3348.2 818.7,3424 
		716.9,3414.1 712.5,3413.7 669.8,3511.5 646.9,3407.2 628.6,3405.5 540.7,3396.9 595.3,3364.8 632.7,3342.8 	"/>
	<path class="st2" d="M695.1,3306.2"/>
	<path class="st2" d="M632.7,3342.8"/>
	<polyline class="st2" points="712.5,3413.7 646.9,3407.2 632.7,3342.8 694.6,3304.4 743.9,3348.2 712.5,3413.7 	"/>
</g>
</svg>
